<svg width="1094" height="1474" viewBox="0 0 1094 1474" fill="none" xmlns="http://www.w3.org/2000/svg">
<path fill-rule="evenodd" clip-rule="evenodd" d="M651.464 0.230156C651.133 0.997874 641.284 10.8552 629.577 22.1347C602.19 48.5193 535.024 113.103 527.217 120.558C500.133 146.43 481.972 163.89 460.816 184.402C447.248 197.558 419.624 224.192 399.43 243.59C379.238 262.988 350.182 291.01 334.863 305.861C319.545 320.711 300.04 339.535 291.519 347.691C283 355.848 266.053 372.191 253.859 384.01C228.866 408.238 228.743 408.356 184.107 451.104C166.208 468.246 139.013 494.537 123.675 509.529C108.336 524.521 89.9762 542.237 82.8749 548.899C67.7258 563.11 63.5291 567.154 27.3395 602.408C12.3033 617.055 7.69023e-08 629.236 7.69023e-08 629.475C-0.00163731 629.715 26.1442 629.706 58.0995 629.459L116.201 629.008L138.741 607.169C151.139 595.157 167.178 579.749 174.382 572.927C200.705 548 205.795 543.148 221.922 527.62C230.959 518.919 252.31 498.512 269.37 482.272C286.43 466.032 309.56 443.886 320.77 433.059C343.872 410.746 346.806 407.944 363.645 392.142C370.32 385.877 391.937 365.208 411.682 346.21C455.488 304.064 457.839 301.812 475.025 285.534C490.071 271.282 544.527 219.264 556.714 207.501C560.921 203.441 576.088 188.921 590.42 175.235C604.752 161.549 622.372 144.681 629.577 137.748C636.781 130.818 644.906 123.021 647.632 120.424L652.588 115.703L662.369 124.993C667.747 130.102 680.285 142.084 690.23 151.617C731.823 191.489 769.128 227.104 774.486 232.058C781.77 238.794 801.94 258.051 830.293 285.339C842.526 297.114 864.617 318.188 879.385 332.173C894.153 346.158 916.564 367.605 929.188 379.832C941.814 392.062 959 408.584 967.38 416.55C987.946 436.1 988.81 436.926 1011.18 458.395C1058.3 503.63 1068.45 513.343 1096.27 539.829C1112.46 555.244 1131.92 573.699 1139.51 580.84C1147.11 587.979 1161.85 602.108 1172.26 612.236L1191.2 630.651L1248.1 630.691C1280.56 630.714 1305 630.099 1305 629.26C1305 628.452 1290.09 613.504 1271.87 596.042C1253.64 578.579 1229.66 555.44 1218.57 544.619C1207.47 533.797 1193.83 520.63 1188.25 515.354C1171.11 499.152 1149.88 478.761 1120.62 450.382C1105.22 435.441 1086.43 417.385 1078.87 410.259C1071.31 403.133 1052.54 385.047 1037.16 370.068C1001.53 335.357 969.728 304.621 947.89 283.781C938.434 274.758 911.961 249.291 889.06 227.186C866.158 205.081 838.563 178.465 827.737 168.041C816.91 157.616 799.21 140.506 788.403 130.017C762.814 105.184 751.032 93.8721 729.307 73.288C719.482 63.9803 702.591 47.7401 691.768 37.1987C656.8 3.14027 652.076 -1.19209 651.464 0.230156ZM517.42 494.391C443.571 568.273 383.149 629.173 383.149 629.726C383.149 630.279 407.281 630.728 436.774 630.728L490.398 630.727L494.818 626.918C498.363 623.863 559.531 563.866 642.661 481.903L653.019 471.691L691.098 508.97C712.042 529.473 748.399 565.234 771.89 588.438L814.602 630.628L869.045 630.679C898.989 630.707 923.488 630.379 923.488 629.951C923.488 628.622 654.276 360.06 652.945 360.06C652.254 360.06 591.268 420.51 517.42 494.391ZM7.69023e-08 983.421V1257.37H52.3965H104.793V983.421V709.47H52.3965H7.69023e-08V983.421ZM329.115 719.249C324.162 724.569 299.7 749.887 274.752 775.511C249.807 801.134 220.902 830.899 210.521 841.654L191.645 861.209L191.609 944.141L191.575 1027.07L205.44 1046.27C213.065 1056.82 220.06 1066.87 220.984 1068.6C221.907 1070.33 223.617 1072.73 224.781 1073.93C225.945 1075.12 229.125 1079.43 231.848 1083.49C237.918 1092.54 269.264 1136.89 273.585 1142.54C275.309 1144.8 279.257 1150.33 282.356 1154.85C285.456 1159.36 290.953 1167.11 294.57 1172.07C298.188 1177.03 303.729 1184.78 306.883 1189.29C310.037 1193.81 315.258 1201.19 318.484 1205.7C321.711 1210.21 326.892 1217.59 330 1222.1C333.106 1226.61 338.968 1234.73 343.025 1240.15C347.082 1245.56 351.256 1251.65 352.303 1253.68L354.202 1257.37H435.408H516.616L518.506 1252.86C519.546 1250.38 522.707 1240.97 525.532 1231.95C528.355 1222.92 532.185 1211.11 534.04 1205.7C535.897 1200.29 539.252 1189.95 541.498 1182.73C543.745 1175.51 547.656 1163.7 550.193 1156.49C552.729 1149.27 555.331 1140.78 555.974 1137.62C556.616 1134.46 559.125 1126.34 561.545 1119.58C565.961 1107.24 568.692 1098.89 592.678 1024.43C599.799 1002.33 613.409 960.217 622.922 930.855C632.435 901.492 640.22 876.569 640.22 875.468C640.22 874.369 640.891 872.186 641.711 870.619C642.533 869.052 644.426 864.08 645.918 859.569C647.411 855.058 649.787 848.129 651.197 844.17L653.761 836.974L658.452 851.492C661.032 859.477 663.143 866.971 663.143 868.144C663.143 869.316 663.852 871.559 664.72 873.126C665.588 874.692 669.005 884.463 672.314 894.838C675.625 905.214 680.698 921.085 683.588 930.107C686.479 939.13 691.634 955.37 695.043 966.197C698.452 977.023 703.652 993.264 706.599 1002.29C709.548 1011.31 713.914 1024.96 716.304 1032.63C718.693 1040.3 721.026 1047.48 721.49 1048.59C722.128 1050.11 716.284 1050.7 697.376 1051.05L672.417 1051.5L670.377 1058.06C669.255 1061.67 667.227 1068.68 665.868 1073.64C664.509 1078.61 662.183 1087.1 660.7 1092.51C650.597 1129.39 646.81 1143.47 646.789 1144.18C646.777 1144.63 670.161 1144.81 698.755 1144.56C727.348 1144.33 751.711 1144.77 752.895 1145.55C754.079 1146.33 758.243 1156.49 762.148 1168.13C766.051 1179.77 772.693 1198.89 776.906 1210.62C781.117 1222.35 786.44 1237.67 788.736 1244.66L792.909 1257.37H884.397H975.885V983.421V709.47H919.395H862.905V906.649C862.905 1015.1 862.287 1103.13 861.534 1102.27C860.069 1100.6 849.806 1073.55 849.806 1071.35C849.806 1070.63 848.764 1067.71 847.49 1064.87C846.218 1062.03 844.279 1056.75 843.184 1053.14C842.088 1049.53 840.657 1045.84 840.004 1044.94C839.351 1044.03 837.918 1039.62 836.821 1035.12C835.724 1030.62 834.234 1026.19 833.51 1025.27C832.786 1024.36 830.283 1018.07 827.948 1011.31C820.478 989.661 807.605 953.508 802.247 939.13C799.39 931.461 794.239 917.066 790.8 907.141C782.042 881.862 770.291 849.013 767.913 843.165C766.813 840.458 765.326 836.029 764.609 833.322C763.893 830.616 761.712 824.341 759.764 819.379C756.227 810.37 751.163 796.296 740.873 766.885C734.766 749.426 723.003 716.737 721.247 712.341C720.183 709.677 715.602 709.47 657.646 709.477L595.191 709.482L592.508 716.449C591.031 720.279 587.108 730.796 583.789 739.818C580.471 748.841 575.642 761.759 573.059 768.526C570.475 775.292 566.748 785.627 564.775 791.492C562.804 797.356 560.649 802.892 559.987 803.795C559.324 804.697 557.494 809.495 555.917 814.457C553.561 821.869 544.365 846.741 538.631 861.209C537.917 863.014 535.319 870.027 532.859 876.794C530.4 883.56 525.918 895.55 522.902 903.439C519.884 911.328 517.415 918.327 517.415 918.992C517.415 919.658 514.542 927.599 511.028 936.638C507.516 945.678 501.727 960.824 498.168 970.298C494.606 979.771 489.316 993.797 486.41 1001.47C483.503 1009.13 480.507 1017.62 479.754 1020.33C478.999 1023.04 476.078 1031.16 473.263 1038.38C470.448 1045.59 467 1054.82 465.602 1058.88C464.202 1062.94 462.07 1068.48 460.866 1071.18C458.852 1075.71 452.359 1093.56 445.355 1113.83C443.798 1118.35 439.937 1128.31 436.777 1135.98C433.619 1143.65 430.516 1152.32 429.885 1155.26C428.461 1161.87 427.519 1161.86 422.745 1155.21C416.922 1147.1 403.325 1128.21 389.199 1108.6C382.17 1098.85 371.702 1084.23 365.935 1076.1C352.208 1056.77 339.957 1039.72 314.667 1004.75C295.564 978.326 291.971 973.28 284.906 962.93C283.555 960.952 279.976 956.08 276.951 952.102C265.539 937.091 254.195 951.042 381.61 823.381L495.302 709.47L416.711 709.523L338.121 709.575L329.115 719.249ZM1062.67 762.784V816.098H1128.98H1195.29V1036.73V1257.37H1248.1H1300.91V983.421V709.47H1181.79H1062.67V762.784Z" fill="#F7F7F7"/>
<path d="M980.339 1302.4V1424.44H948.853V1331.94H900.283V1424.44H868.797V1302.4H980.339Z" fill="#F7F7F7"/>
<path d="M839.948 1302.4V1424.44H808.463V1331.94H759.892V1424.44H728.406V1302.4H839.948Z" fill="#F7F7F7"/>
<path d="M679.74 1302.4H713.422L669.001 1424.44C656.635 1458.77 635.156 1475.04 604.566 1473.25V1443.97C612.864 1444.13 619.373 1442.58 624.091 1439.33C628.973 1436.07 632.878 1430.62 635.807 1422.98L586.504 1302.4H619.942L652.648 1384.41L679.74 1302.4Z" fill="#F7F7F7"/>
<path d="M523.182 1298.99C539.616 1298.99 553.61 1305.25 565.163 1317.78C576.878 1330.15 582.736 1345.36 582.736 1363.42C582.736 1381.48 576.878 1396.78 565.163 1409.31C553.61 1421.67 539.616 1427.86 523.182 1427.86C506.097 1427.86 492.917 1421.92 483.642 1410.04V1473.26H452.156V1302.4H483.642V1316.8C492.917 1304.93 506.097 1298.99 523.182 1298.99ZM493.161 1388.32C499.507 1394.66 507.561 1397.84 517.324 1397.84C527.087 1397.84 535.142 1394.66 541.487 1388.32C547.996 1381.81 551.25 1373.51 551.25 1363.42C551.25 1353.33 547.996 1345.12 541.487 1338.77C535.142 1332.26 527.087 1329.01 517.324 1329.01C507.561 1329.01 499.507 1332.26 493.161 1338.77C486.815 1345.12 483.642 1353.33 483.642 1363.42C483.642 1373.51 486.815 1381.81 493.161 1388.32Z" fill="#F7F7F7"/>
<path d="M435.282 1302.4V1332.67H383.294V1424.44H351.809V1302.4H435.282Z" fill="#F7F7F7"/>
</svg>
